<?xml version="1.0" encoding="UTF-8"?>
<!DOCTYPE svg PUBLIC "-//W3C//DTD SVG 1.1//EN" "http://www.w3.org/Graphics/SVG/1.1/DTD/svg11.dtd">
<svg xmlns="http://www.w3.org/2000/svg" version="1.1" width="512px" height="512px" style="shape-rendering:geometricPrecision; text-rendering:geometricPrecision; image-rendering:optimizeQuality; fill-rule:evenodd; clip-rule:evenodd" xmlns:xlink="http://www.w3.org/1999/xlink">
<g><path style="opacity:0.986" fill="#f9c473" d="M 175.5,134.5 C 181.329,141.878 180.663,148.711 173.5,155C 160.174,163.896 145.841,170.896 130.5,176C 129.244,176.417 128.577,177.25 128.5,178.5C 127.345,171.679 127.179,164.679 128,157.5C 132.011,143.832 141.178,136.332 155.5,135C 162.167,133.534 168.834,133.368 175.5,134.5 Z"/></g>
<g><path style="opacity:0.999" fill="#e8b66b" d="M 175.5,134.5 C 189.361,135.435 202.028,139.768 213.5,147.5C 210.871,150.631 208.038,153.631 205,156.5C 203.589,158.65 202.755,160.984 202.5,163.5C 192.946,165.056 183.613,167.556 174.5,171C 159.856,177.988 145.523,185.488 131.5,193.5C 129.714,188.683 128.714,183.683 128.5,178.5C 128.577,177.25 129.244,176.417 130.5,176C 145.841,170.896 160.174,163.896 173.5,155C 180.663,148.711 181.329,141.878 175.5,134.5 Z"/></g>
<g><path style="opacity:0.991" fill="#ffffff" d="M 253.5,148.5 C 256.522,154.557 259.022,160.891 261,167.5C 261.648,172.204 261.481,176.871 260.5,181.5C 249.076,176.458 237.41,171.958 225.5,168C 217.888,165.465 210.222,163.965 202.5,163.5C 202.755,160.984 203.589,158.65 205,156.5C 208.038,153.631 210.871,150.631 213.5,147.5C 226.958,141.958 240.291,142.291 253.5,148.5 Z"/></g>
<g><path style="opacity:1" fill="rgb(243, 243, 243)" d="M 253.5,148.5 C 269.487,157.141 276.487,170.474 274.5,188.5C 269.516,186.674 264.849,184.341 260.5,181.5C 261.481,176.871 261.648,172.204 261,167.5C 259.022,160.891 256.522,154.557 253.5,148.5 Z"/></g>
<g><path style="opacity:0.992" fill="#fcd69e" d="M 202.5,163.5 C 210.222,163.965 217.888,165.465 225.5,168C 237.41,171.958 249.076,176.458 260.5,181.5C 264.849,184.341 269.516,186.674 274.5,188.5C 318.716,211.276 363.383,232.942 408.5,253.5C 401.867,257.656 394.534,260.156 386.5,261C 368.319,262.519 350.652,260.186 333.5,254C 304.085,240.085 274.418,226.751 244.5,214C 230.949,208.371 216.949,204.371 202.5,202C 188.356,200.618 174.689,202.618 161.5,208C 141.955,217.864 122.622,228.197 103.5,239C 67.9417,254.039 35.7751,248.872 7,223.5C 6.53566,222.906 6.36899,222.239 6.5,221.5C 9.36953,209.058 13.5362,197.058 19,185.5C 23.7321,180.908 28.8988,180.408 34.5,184C 49.4097,206.442 70.0764,214.442 96.5,208C 108.739,204.424 120.406,199.59 131.5,193.5C 145.523,185.488 159.856,177.988 174.5,171C 183.613,167.556 192.946,165.056 202.5,163.5 Z"/></g>
<g><path style="opacity:0.999" fill="rgb(220, 220, 220)" d="M 408.5,253.5 C 420.575,257.856 432.575,262.19 444.5,266.5C 434.644,272.172 424.644,277.672 414.5,283C 384.305,293.398 354.305,292.732 324.5,281C 292.52,265.843 260.187,251.509 227.5,238C 217.004,233.83 206.171,231.33 195,230.5C 187.576,230.118 180.409,231.285 173.5,234C 153.04,244.397 132.707,255.063 112.5,266C 81.4739,278.639 50.4739,278.639 19.5,266C 12.8063,262.658 6.47295,258.825 0.5,254.5C 1.11595,243.127 3.11595,232.127 6.5,221.5C 6.36899,222.239 6.53566,222.906 7,223.5C 35.7751,248.872 67.9417,254.039 103.5,239C 122.622,228.197 141.955,217.864 161.5,208C 174.689,202.618 188.356,200.618 202.5,202C 216.949,204.371 230.949,208.371 244.5,214C 274.418,226.751 304.085,240.085 333.5,254C 350.652,260.186 368.319,262.519 386.5,261C 394.534,260.156 401.867,257.656 408.5,253.5 Z"/></g>
<g><path style="opacity:0.999" fill="rgb(18, 48, 38)" d="M 444.5,266.5 C 460.382,270.811 476.382,273.811 492.5,275.5C 489.167,275.5 485.833,275.5 482.5,275.5C 482.738,289.768 476.738,300.601 464.5,308C 441.265,319.878 416.598,326.878 390.5,329C 354.747,332.24 319.081,334.407 283.5,335.5C 229.728,315.314 174.062,304.814 116.5,304C 99.1667,303.333 81.8333,303.333 64.5,304C 53.8101,306.04 44.4768,310.706 36.5,318C 27.2209,322.909 17.5543,325.075 7.5,324.5C 3.67571,314.022 1.00904,303.355 -0.5,292.5C -0.5,279.833 -0.5,267.167 -0.5,254.5C -0.166667,254.5 0.166667,254.5 0.5,254.5C 6.47295,258.825 12.8063,262.658 19.5,266C 50.4739,278.639 81.4739,278.639 112.5,266C 132.707,255.063 153.04,244.397 173.5,234C 180.409,231.285 187.576,230.118 195,230.5C 206.171,231.33 217.004,233.83 227.5,238C 260.187,251.509 292.52,265.843 324.5,281C 354.305,292.732 384.305,293.398 414.5,283C 424.644,277.672 434.644,272.172 444.5,266.5 Z"/></g>
<g><path style="opacity:1" fill="rgb(15, 40, 30)" d="M 492.5,275.5 C 496.025,275.346 498.859,276.679 501,279.5C 505.634,286.76 509.134,294.427 511.5,302.5C 511.5,308.167 511.5,313.833 511.5,319.5C 509.803,325.216 506.803,330.216 502.5,334.5C 490.117,335.17 477.784,336.17 465.5,337.5C 412.89,340.89 360.224,342.057 307.5,341C 299.32,339.788 291.32,337.954 283.5,335.5C 319.081,334.407 354.747,332.24 390.5,329C 416.598,326.878 441.265,319.878 464.5,308C 476.738,300.601 482.738,289.768 482.5,275.5C 485.833,275.5 489.167,275.5 492.5,275.5 Z"/></g>
<g><path style="opacity:0.998" fill="#fdefdb" d="M 283.5,335.5 C 291.32,337.954 299.32,339.788 307.5,341C 360.224,342.057 412.89,340.89 465.5,337.5C 463.26,347.914 457.926,356.414 449.5,363C 444.436,366.191 439.436,369.358 434.5,372.5C 415.752,375.289 396.752,376.789 377.5,377C 262.833,377.667 148.167,377.667 33.5,377C 20.8446,375.17 9.51131,370.337 -0.5,362.5C -0.5,350.833 -0.5,339.167 -0.5,327.5C 1.71879,325.394 4.38545,324.394 7.5,324.5C 17.5543,325.075 27.2209,322.909 36.5,318C 44.4768,310.706 53.8101,306.04 64.5,304C 81.8333,303.333 99.1667,303.333 116.5,304C 174.062,304.814 229.728,315.314 283.5,335.5 Z"/></g>
<g><path style="opacity:1" fill="#e8b66b" d="M 65.5,332.5 C 95.8352,332.333 126.168,332.5 156.5,333C 161.689,335.913 162.856,340.08 160,345.5C 158.581,346.46 157.081,347.293 155.5,348C 125.5,348.667 95.5,348.667 65.5,348C 58.8881,342.836 58.8881,337.67 65.5,332.5 Z"/></g>
<g><path style="opacity:1" fill="#fbd7a1" d="M 502.5,334.5 C 506.621,333.658 509.621,334.991 511.5,338.5C 511.5,341.5 511.5,344.5 511.5,347.5C 509.787,350.725 507.454,353.559 504.5,356C 481.992,364.96 458.658,370.46 434.5,372.5C 439.436,369.358 444.436,366.191 449.5,363C 457.926,356.414 463.26,347.914 465.5,337.5C 477.784,336.17 490.117,335.17 502.5,334.5 Z"/></g>
</svg>
