<svg width="68" height="25" viewBox="0 0 68 25" fill="black" xmlns="http://www.w3.org/2000/svg">
<g clip-path="url(#clip0_12_89)">
<path d="M34.754 8.28057L37.9566 8.07356C38.0297 8.59718 38.1637 8.98686 38.3829 9.26694C38.736 9.70532 39.2231 9.92451 39.8685 9.92451C40.3434 9.92451 40.7209 9.81491 40.9766 9.58354C41.2202 9.40089 41.3663 9.10863 41.3663 8.8042C41.3663 8.51194 41.2323 8.23186 41.001 8.04921C40.7574 7.83001 40.1851 7.61082 39.284 7.41599C37.8105 7.0872 36.7511 6.64882 36.1301 6.08866C35.509 5.56504 35.1559 4.79787 35.1802 3.98199C35.1802 3.42183 35.3507 2.86167 35.6673 2.39894C36.0326 1.87531 36.5319 1.46129 37.1286 1.22992C37.774 0.949839 38.6751 0.803711 39.8076 0.803711C41.1958 0.803711 42.2552 1.05943 42.9859 1.58306C43.7165 2.0945 44.1549 2.92256 44.2888 4.05505L41.1227 4.23771C41.0375 3.75062 40.867 3.39748 40.5869 3.16611C40.3069 2.93474 39.9416 2.82514 39.4666 2.82514C39.077 2.82514 38.7847 2.91038 38.5899 3.06869C38.4072 3.21482 38.2854 3.43401 38.2976 3.67755C38.2976 3.86021 38.395 4.0307 38.5412 4.14029C38.6995 4.28642 39.077 4.42037 39.6736 4.54214C41.1471 4.85875 42.1944 5.17536 42.8397 5.50415C43.4851 5.83294 43.9479 6.23479 44.228 6.7097C44.5202 7.19679 44.6663 7.75695 44.6542 8.32928C44.6542 9.01121 44.4593 9.69314 44.0697 10.2655C43.6678 10.8622 43.1077 11.3249 42.4501 11.605C41.756 11.9094 40.8792 12.0677 39.832 12.0677C37.981 12.0677 36.7024 11.7146 35.9839 10.9961C35.2655 10.2777 34.8393 9.37653 34.754 8.28057ZM0.76717 11.8851V0.998548H6.38091C7.41598 0.998548 8.21968 1.08379 8.76766 1.26645C9.30346 1.43693 9.77837 1.79007 10.095 2.26499C10.4481 2.78861 10.6186 3.39748 10.6064 4.0307C10.643 5.1023 10.095 6.12519 9.15733 6.66099C8.79201 6.86801 8.39016 7.01413 7.97613 7.0872C8.28057 7.17244 8.585 7.31857 8.8529 7.48905C9.05991 7.65953 9.23039 7.85437 9.3887 8.06138C9.57136 8.2684 9.72966 8.49977 9.86362 8.74331L11.4954 11.8972H7.6717L5.86946 8.54847C5.63809 8.12227 5.44325 7.84219 5.26059 7.70824C5.01705 7.53776 4.72479 7.45252 4.43254 7.45252H4.14028V11.8729H0.76717V11.8851ZM4.14028 5.40673H5.56503C5.86946 5.38238 6.16171 5.33367 6.45397 5.2606C6.67316 5.22407 6.868 5.1023 7.00195 4.91964C7.33074 4.48126 7.28203 3.86021 6.88018 3.48272C6.66098 3.30006 6.23478 3.20264 5.62591 3.20264H4.14028V5.40673ZM0 21.2129L3.20263 21.0059C3.27569 21.5295 3.40964 21.9192 3.62884 22.1992C3.9698 22.6376 4.46907 22.869 5.11447 22.869C5.58938 22.869 5.96688 22.7594 6.2226 22.528C6.46615 22.3332 6.61227 22.0531 6.61227 21.7487C6.61227 21.4564 6.47832 21.1763 6.24696 20.9937C6.00341 20.7745 5.43108 20.5553 4.51778 20.3605C3.04433 20.0317 1.9849 19.5933 1.36386 19.0331C0.742815 18.5095 0.389674 17.7423 0.414028 16.9265C0.414028 16.3663 0.584511 15.8061 0.90112 15.3434C1.26644 14.8198 1.76571 14.4058 2.3624 14.1744C3.00779 13.8943 3.90891 13.7482 5.0414 13.7482C6.42962 13.7482 7.48904 14.0039 8.21968 14.5275C8.95032 15.0512 9.37652 15.867 9.51047 16.9995L6.34437 17.1822C6.25913 16.6951 6.08865 16.3419 5.80857 16.1106C5.54067 15.8792 5.16318 15.7696 4.68826 15.7818C4.29859 15.7818 4.00633 15.867 3.8115 16.0375C3.61666 16.1836 3.50706 16.4028 3.51924 16.6464C3.51924 16.829 3.61666 16.9995 3.76279 17.1091C3.92109 17.2552 4.29859 17.3892 4.89528 17.511C6.36873 17.8276 7.41598 18.1442 8.06137 18.473C8.70677 18.8018 9.16951 19.2036 9.44959 19.6785C9.74184 20.1656 9.88797 20.7258 9.88797 21.2859C9.88797 21.9679 9.68095 22.6376 9.30346 23.2099C8.90161 23.8066 8.34145 24.2694 7.68388 24.5494C6.98977 24.8539 6.11301 25.0122 5.06576 25.0122C3.21481 25.0122 1.93619 24.659 1.21773 23.9406C0.499269 23.2099 0.0974184 22.3088 0 21.2129Z" fill="black"/>
<path d="M16.1958 20.3604L19.1427 21.2494C18.9844 21.9922 18.6556 22.6985 18.2051 23.3195C17.791 23.8675 17.2431 24.2937 16.622 24.5738C15.9888 24.8539 15.1851 25 14.2109 25C13.0297 25 12.0555 24.8295 11.3127 24.4885C10.5577 24.1476 9.91232 23.5387 9.36434 22.6741C8.81636 21.8095 8.54846 20.7014 8.54846 19.3497C8.54846 17.5475 9.02338 16.1593 9.98538 15.1973C10.9474 14.2353 12.2991 13.7482 14.0526 13.7482C15.4286 13.7482 16.5002 14.0282 17.2918 14.5762C18.0711 15.1364 18.6556 15.9888 19.0453 17.1335L16.074 17.791C16.001 17.5353 15.8914 17.2796 15.7452 17.0604C15.5626 16.8047 15.3312 16.6098 15.0511 16.4637C14.7711 16.3176 14.4545 16.2567 14.1378 16.2567C13.3707 16.2567 12.7862 16.5611 12.3843 17.1822C12.0799 17.6327 11.9216 18.3512 11.9216 19.3254C11.9216 20.5309 12.1042 21.359 12.4696 21.8095C12.8349 22.2601 13.3463 22.4793 14.0161 22.4793C14.6615 22.4793 15.1486 22.2966 15.4773 21.9435C15.8061 21.566 16.0497 21.0424 16.1958 20.3604ZM23.076 13.9308H26.4369V17.7423H30.1145V13.9308H33.4998V24.8173H30.1145V20.4092H26.4369V24.8173H23.076V13.9308Z" fill="black"/>
<path d="M33.037 19.3741C33.037 17.5962 33.5363 16.208 34.5226 15.2217C35.509 14.2353 36.8972 13.736 38.6629 13.736C40.4773 13.736 41.8655 14.2231 42.8519 15.1973C43.8383 16.1715 44.3253 17.5353 44.3253 19.2889C44.3253 20.5675 44.1062 21.6026 43.68 22.4184C43.2659 23.2221 42.6205 23.8797 41.829 24.3181C41.0131 24.7687 40.0024 25 38.7969 25C37.5669 25 36.5562 24.8052 35.7525 24.4155C34.9245 24.0015 34.2425 23.3561 33.792 22.5646C33.2927 21.7122 33.037 20.6527 33.037 19.3741ZM36.3979 19.3863C36.3979 20.4822 36.6049 21.2738 37.0068 21.7609C37.4086 22.2358 37.9688 22.4793 38.6751 22.4793C39.3935 22.4793 39.9537 22.248 40.3555 21.773C40.7574 21.2981 40.9522 20.4579 40.9522 19.2402C40.9522 18.2173 40.7452 17.4623 40.3312 16.9995C39.9172 16.5246 39.357 16.2933 38.6507 16.2933C38.0297 16.2689 37.433 16.5368 37.019 17.0117C36.6049 17.4866 36.3979 18.2782 36.3979 19.3863ZM47.7715 19.3741C47.7715 17.5962 48.2708 16.208 49.2572 15.2217C50.2435 14.2353 51.6317 13.736 53.3974 13.736C55.2119 13.736 56.6122 14.2231 57.5864 15.1973C58.5606 16.1715 59.0599 17.5353 59.0599 19.2889C59.0599 20.5675 58.8407 21.6026 58.4145 22.4184C58.0005 23.2221 57.3551 23.8797 56.5635 24.3181C55.7477 24.7687 54.7369 25 53.5314 25C52.3015 25 51.2908 24.8052 50.4871 24.4155C49.659 24.0015 48.9771 23.3561 48.5265 22.5646C48.0272 21.7122 47.7715 20.6527 47.7715 19.3741ZM51.1325 19.3863C51.1325 20.4822 51.3395 21.2738 51.7413 21.7609C52.1432 22.2358 52.7033 22.4793 53.4096 22.4793C54.1281 22.4793 54.6882 22.248 55.0901 21.773C55.4919 21.2981 55.6868 20.4579 55.6868 19.2402C55.6868 18.2173 55.4798 17.4623 55.0657 16.9995C54.6517 16.5246 54.0915 16.2933 53.3853 16.2933C52.7642 16.2689 52.1554 16.5368 51.7535 17.0117C51.3395 17.4866 51.1325 18.2782 51.1325 19.3863Z" fill="black"/>
<path d="M58.7068 13.9308H62.0677V22.1383H67.3161V24.8174H58.6946V13.9308H58.7068Z" fill="black"/>
<path d="M55.0023 13.3026C58.386 10.7526 59.4294 6.43011 57.3328 3.64792C55.2362 0.86573 50.7935 0.677444 47.4098 3.22737C44.026 5.7773 42.9826 10.0998 45.0792 12.882C47.1758 15.6642 51.6185 15.8525 55.0023 13.3026Z" fill="#989898"/>
<mask id="mask0_12_89" style="mask-type:luminance" maskUnits="userSpaceOnUse" x="43" y="1" width="16" height="15">
<path d="M55.0023 13.3026C58.386 10.7526 59.4294 6.43011 57.3328 3.64792C55.2362 0.86573 50.7935 0.677444 47.4098 3.22737C44.026 5.7773 42.9826 10.0998 45.0792 12.882C47.1758 15.6642 51.6185 15.8525 55.0023 13.3026Z" fill="white"/>
</mask>
<g mask="url(#mask0_12_89)">
<path d="M36.4496 6.88507L53.9354 -6.29185L66.035 9.76429L48.5492 22.9412L36.4496 6.88507Z" fill="#959595"/>
<mask id="mask1_12_89" style="mask-type:luminance" maskUnits="userSpaceOnUse" x="36" y="-7" width="31" height="30">
<path d="M36.4496 6.88507L53.9354 -6.29185L66.035 9.76429L48.5492 22.9412L36.4496 6.88507Z" fill="white"/>
</mask>
<g mask="url(#mask1_12_89)">
<path d="M55.0023 13.3026C58.386 10.7526 59.4294 6.43011 57.3328 3.64792C55.2362 0.86573 50.7935 0.677444 47.4098 3.22737C44.026 5.7773 42.9826 10.0998 45.0792 12.882C47.1758 15.6642 51.6185 15.8525 55.0023 13.3026Z" fill="#959595"/>
<mask id="mask2_12_89" style="mask-type:luminance" maskUnits="userSpaceOnUse" x="43" y="1" width="16" height="15">
<path d="M55.0023 13.3026C58.386 10.7526 59.4294 6.43011 57.3328 3.64792C55.2362 0.86573 50.7935 0.677444 47.4098 3.22737C44.026 5.7773 42.9826 10.0998 45.0792 12.882C47.1758 15.6642 51.6185 15.8525 55.0023 13.3026Z" fill="white"/>
</mask>
<g mask="url(#mask2_12_89)">
<path d="M41.3188 7.95721L53.5629 -1.26935L61.1625 8.81571L48.9185 18.0423L41.3188 7.95721Z" fill="#959595"/>
<mask id="mask3_12_89" style="mask-type:luminance" maskUnits="userSpaceOnUse" x="41" y="-2" width="21" height="21">
<path d="M41.3188 7.95721L53.5629 -1.26935L61.1625 8.81571L48.9185 18.0423L41.3188 7.95721Z" fill="white"/>
</mask>
<g mask="url(#mask3_12_89)">
<path d="M55.0023 13.3026C58.386 10.7526 59.4294 6.43011 57.3328 3.64792C55.2362 0.86573 50.7935 0.677444 47.4098 3.22737C44.026 5.7773 42.9826 10.0998 45.0792 12.882C47.1758 15.6642 51.6185 15.8525 55.0023 13.3026Z" fill="#959595" stroke="white" stroke-width="4" stroke-miterlimit="10"/>
</g>
<mask id="mask4_12_89" style="mask-type:luminance" maskUnits="userSpaceOnUse" x="43" y="-1" width="17" height="19">
<path d="M43.0636 14.0139L47.2895 -0.723465L59.4281 2.75725L55.2023 17.4946L43.0636 14.0139Z" fill="white"/>
</mask>
<g mask="url(#mask4_12_89)">
<path d="M41.3188 7.95721L53.5628 -1.26935L61.1625 8.81571L48.9184 18.0423L41.3188 7.95721Z" stroke="white" stroke-width="4" stroke-miterlimit="10"/>
</g>
<path d="M55.0023 13.3025C58.386 10.7526 59.4294 6.43005 57.3328 3.64786C55.2362 0.865669 50.7935 0.677383 47.4098 3.22731C44.026 5.77724 42.9826 10.0998 45.0792 12.882C47.1758 15.6642 51.6185 15.8524 55.0023 13.3025Z" stroke="white" stroke-width="4" stroke-miterlimit="10"/>
<path d="M41.3188 7.95721L53.5629 -1.26935L61.1625 8.81571L48.9185 18.0423L41.3188 7.95721Z" fill="#959595"/>
<mask id="mask5_12_89" style="mask-type:luminance" maskUnits="userSpaceOnUse" x="41" y="-2" width="21" height="21">
<path d="M41.3188 7.95721L53.5629 -1.26935L61.1625 8.81571L48.9185 18.0423L41.3188 7.95721Z" fill="white"/>
</mask>
<g mask="url(#mask5_12_89)">
<path d="M55.0023 13.3026C58.386 10.7526 59.4294 6.43011 57.3328 3.64792C55.2362 0.86573 50.7935 0.677444 47.4098 3.22737C44.026 5.7773 42.9826 10.0998 45.0792 12.882C47.1758 15.6642 51.6185 15.8525 55.0023 13.3026Z" fill="#959595" stroke="white" stroke-width="4" stroke-miterlimit="10"/>
</g>
<mask id="mask6_12_89" style="mask-type:luminance" maskUnits="userSpaceOnUse" x="43" y="-1" width="17" height="19">
<path d="M43.0636 14.0139L47.2895 -0.723465L59.4281 2.75725L55.2023 17.4946L43.0636 14.0139Z" fill="white"/>
</mask>
<g mask="url(#mask6_12_89)">
<path d="M41.3188 7.95721L53.5628 -1.26935L61.1625 8.81571L48.9184 18.0423L41.3188 7.95721Z" stroke="white" stroke-width="4" stroke-miterlimit="10"/>
</g>
<path d="M36.4496 6.88507L53.9354 -6.29185L66.035 9.76429L48.5493 22.9412L36.4496 6.88507Z" stroke="white" stroke-width="4" stroke-miterlimit="10"/>
</g>
<path d="M55.0023 13.3026C58.386 10.7526 59.4294 6.43011 57.3328 3.64792C55.2362 0.86573 50.7935 0.677444 47.4098 3.22737C44.026 5.7773 42.9826 10.0998 45.0792 12.882C47.1758 15.6642 51.6185 15.8525 55.0023 13.3026Z" stroke="white" stroke-width="4" stroke-miterlimit="10"/>
<path d="M47.7837 7.46468L49.0014 6.61227L50.4992 8.7433C50.755 9.08426 50.9498 9.44958 51.0959 9.85143C51.1812 10.1559 51.1568 10.4847 51.035 10.7769C50.8767 11.1422 50.621 11.4467 50.28 11.6659C49.8782 11.9459 49.5372 12.1042 49.245 12.1529C48.9649 12.2017 48.6726 12.1529 48.4047 12.0312C48.1125 11.885 47.8568 11.678 47.6619 11.4101L48.7092 10.4359C48.7944 10.5699 48.904 10.6917 49.0258 10.7891C49.111 10.85 49.2084 10.8865 49.318 10.8865C49.4033 10.8865 49.4885 10.85 49.5494 10.8013C49.6712 10.7282 49.7564 10.5821 49.7442 10.4359C49.7077 10.2289 49.6225 10.0219 49.4885 9.86361L47.7837 7.46468ZM51.4369 8.81636L52.545 7.9396C52.6668 8.08572 52.8251 8.19532 52.9956 8.25621C53.2391 8.32927 53.4949 8.28056 53.7019 8.12225C53.848 8.02484 53.9698 7.89089 54.0185 7.7204C54.0915 7.50121 53.9698 7.25767 53.7506 7.1846C53.714 7.17243 53.6775 7.16025 53.641 7.16025C53.4949 7.14807 53.2391 7.20896 52.8616 7.36726C52.2406 7.62299 51.7535 7.7204 51.3882 7.68387C51.035 7.64734 50.7063 7.46468 50.5114 7.16025C50.3653 6.95323 50.2922 6.70969 50.28 6.46614C50.28 6.18606 50.3531 5.90599 50.5114 5.67462C50.7428 5.34583 51.0229 5.06575 51.3638 4.84656C51.8753 4.49342 52.3258 4.32294 52.7155 4.32294C53.1052 4.32294 53.4705 4.5056 53.8115 4.88309L52.7155 5.74768C52.4963 5.4676 52.0823 5.40672 51.8022 5.62591L51.7657 5.66244C51.6439 5.7355 51.5587 5.8451 51.51 5.97905C51.4734 6.07647 51.4978 6.18606 51.5587 6.27131C51.6074 6.33219 51.6804 6.3809 51.7657 6.3809C51.8631 6.39308 52.0336 6.34437 52.2771 6.23477C52.886 5.97905 53.3487 5.83292 53.6653 5.78421C53.9332 5.7355 54.2133 5.75986 54.469 5.86945C54.7004 5.96687 54.8952 6.13735 55.0292 6.34437C55.1997 6.58791 55.2971 6.88017 55.3093 7.1846C55.3215 7.50121 55.2362 7.80565 55.0657 8.07355C54.8465 8.40233 54.5665 8.68241 54.2377 8.9016C53.5679 9.36434 53.0199 9.55918 52.5816 9.48611C52.1066 9.41305 51.717 9.1695 51.4369 8.81636Z" fill="white"/>
</g>
</g>
</g>
<defs>
<clipPath id="clip0_12_89">
<rect width="67.3161" height="25" fill="white"/>
</clipPath>
</defs>
</svg>
