<?xml version="1.0" standalone="no"?>
<!DOCTYPE svg PUBLIC "-//W3C//DTD SVG 20010904//EN"
 "http://www.w3.org/TR/2001/REC-SVG-20010904/DTD/svg10.dtd">
<svg version="1.0" xmlns="http://www.w3.org/2000/svg"
 width="512.000000pt" height="512.000000pt" viewBox="0 0 512.000000 512.000000"
 preserveAspectRatio="xMidYMid meet">

<g transform="translate(0.000000,512.000000) scale(0.100000,-0.100000)"
fill="#000000" stroke="none">
<path d="M1558 3795 c-98 -22 -152 -48 -207 -100 -102 -96 -131 -252 -85 -471
l6 -31 -109 -46 c-140 -58 -197 -71 -313 -70 -152 1 -224 37 -340 169 -69 79
-102 98 -165 98 -60 0 -110 -25 -141 -72 -28 -41 -98 -237 -135 -377 -79 -304
-89 -612 -29 -873 20 -82 20 -82 -1 -103 -34 -34 -39 -65 -39 -233 0 -200 3
-206 134 -282 151 -88 147 -88 506 -92 309 -3 315 -3 338 18 29 27 30 80 1
106 -19 18 -44 19 -329 24 l-308 5 -96 49 -96 49 0 124 0 123 39 0 c104 0 221
41 340 119 133 88 157 93 430 92 504 -2 927 -47 1291 -136 77 -19 249 -70 383
-114 354 -116 355 -116 770 -116 l349 0 19 24 c26 31 24 73 -3 99 -22 20 -34
21 -373 25 -407 5 -388 2 -751 121 -388 127 -634 179 -1014 215 -358 35 -873
43 -973 17 -68 -19 -140 -54 -219 -107 -61 -42 -131 -72 -190 -83 -34 -6 -37
-5 -47 26 -23 75 -43 201 -48 316 -3 67 -3 122 1 122 4 0 32 -13 64 -29 250
-125 597 -146 872 -53 129 44 187 73 405 197 234 134 335 175 450 182 148 10
301 -46 980 -357 417 -191 507 -215 800 -215 253 0 319 18 555 150 l121 67
102 -25 c96 -24 172 -37 312 -55 l60 -7 34 -64 c73 -138 79 -260 17 -334 -21
-25 -26 -26 -246 -41 -124 -9 -322 -21 -440 -26 -213 -10 -215 -10 -237 -36
-28 -31 -29 -64 -4 -95 19 -23 23 -24 153 -21 148 3 572 28 718 42 52 5 96 7
98 5 12 -12 -35 -59 -76 -76 -120 -52 -399 -114 -637 -143 -264 -32 -432 -36
-1715 -36 -1391 -1 -1318 2 -1339 -51 -11 -30 8 -83 34 -93 28 -10 2585 -7
2750 4 390 27 783 101 986 188 123 53 186 209 119 295 -20 25 -20 25 1 71 29
66 35 165 15 251 -21 88 -77 205 -122 255 -41 45 -71 56 -174 65 -299 26 -735
177 -1242 431 -156 78 -195 87 -228 54 -25 -25 -26 -81 -2 -103 16 -15 334
-171 452 -223 l44 -19 -44 -7 c-86 -14 -284 14 -406 56 -38 13 -193 81 -344
151 -774 357 -964 411 -1242 355 -161 -33 -256 -76 -570 -259 -208 -120 -337
-161 -508 -161 -166 0 -297 40 -429 129 -39 27 -61 49 -61 61 0 27 74 235 96
267 l17 27 76 -81 c42 -45 92 -93 112 -107 99 -71 266 -106 417 -86 162 21
275 68 567 233 276 157 395 200 560 200 85 0 113 -4 190 -30 126 -43 310 -125
577 -259 125 -63 239 -114 253 -114 55 0 89 86 48 122 -10 8 -86 50 -169 93
l-152 79 -5 62 c-20 259 -331 459 -602 389 l-59 -16 -73 36 c-41 20 -109 45
-151 56 -103 28 -283 34 -374 14z m369 -169 c45 -15 85 -31 88 -36 3 -4 -4
-24 -15 -43 -18 -30 -28 -36 -82 -47 -114 -22 -290 -97 -448 -190 -38 -23 -55
-28 -61 -19 -12 20 -21 134 -13 175 26 143 124 197 344 190 78 -3 126 -11 187
-30z m538 -85 c98 -43 173 -116 190 -184 l7 -27 -86 40 c-115 52 -256 105
-340 126 -58 15 -66 19 -53 31 47 47 191 54 282 14z m-338 -551 c171 -41 411
-138 909 -368 143 -66 291 -129 330 -140 231 -69 453 -74 618 -17 l71 25 74
-27 c67 -24 72 -28 55 -40 -45 -33 -167 -84 -249 -104 -79 -19 -110 -21 -250
-16 -251 8 -329 31 -740 222 -318 148 -554 247 -714 303 -131 45 -140 47 -251
47 -177 0 -279 -36 -556 -197 -161 -94 -268 -148 -361 -181 -202 -73 -462 -76
-665 -8 -78 26 -209 93 -221 113 -12 19 1 128 15 128 6 0 19 -6 27 -14 31 -28
179 -95 257 -118 68 -20 102 -23 244 -23 142 0 176 3 245 23 99 29 244 97 400
189 352 207 538 257 762 203z"/>
<path d="M690 1790 c-30 -30 -27 -83 6 -109 26 -21 37 -21 466 -21 l439 0 24
25 c32 31 32 69 0 100 l-24 25 -446 0 c-432 0 -446 -1 -465 -20z"/>
</g>
</svg>
